<?xml version="1.0" standalone="no"?><!DOCTYPE svg PUBLIC "-//W3C//DTD SVG 1.1//EN" "http://www.w3.org/Graphics/SVG/1.1/DTD/svg11.dtd"><svg class="icon" width="200px" height="200.00px" viewBox="0 0 1024 1024" version="1.1" xmlns="http://www.w3.org/2000/svg"><path d="M833.536622 542.754444 50.285778 542.754444c-14.660908 0-26.521027-13.111622-26.521027-29.204136 0-16.093537 11.860119-29.204136 26.521027-29.204136l783.250844 0c62.638619 0 113.593128-56.021921 113.593128-124.919081s-50.954509-124.919081-113.593128-124.919081c-52.330856 0-97.683786 38.97671-110.320595 94.643544-3.515057 15.614629-17.938558 25.149796-32.181957 21.216207-14.244422-3.814886-22.886243-19.668968-19.370163-35.282574 18.59552-81.770352 85.10633-138.865721 161.872714-138.865721 91.90006 0 166.697603 82.127486 166.697603 183.207625C1000.234225 460.506209 925.435659 542.754444 833.536622 542.754444zM484.763171 420.574754c-0.716314 0-1.489934 0-2.2656-0.118704-0.715291 0.118704-1.430582 0.118704-2.2656 0.118704L51.775712 420.574754c-15.436574 0-28.010961-12.873192-28.010961-28.726252 0-15.734356 12.574387-28.607548 28.010961-28.607548l428.456259 0c0.833995 0 1.550309 0 2.2656 0.119727 0.715291-0.119727 1.549286-0.119727 2.2656-0.119727 51.254338 0 92.972485-42.791595 92.972485-95.358835 0-52.447513-41.71917-95.239108-92.972485-95.239108-36.652781 0-69.970608 22.169929-84.989673 56.499805-6.317892 14.423501-22.886243 20.9788-36.951587 14.543228-14.184047-6.557346-20.500916-23.482831-14.184047-37.906332 23.959691-54.948473 77.360925-90.470501 136.125307-90.470501 82.125439 0 148.997476 68.418252 148.997476 152.573931C633.759623 352.154455 566.88861 420.574754 484.763171 420.574754zM49.808918 603.305519l628.41029 0c76.525907 0 138.748041 68.540026 138.748041 152.693658 0 84.152609-62.222133 152.692634-138.748041 152.692634-54.649668 0-104.416118-35.522028-126.70475-90.471524-5.842055-14.422478 0.057305-31.467689 13.230326-37.905308 13.111622-6.435573 28.548196 0 34.44858 14.543228 13.886265 34.209126 44.936445 56.380078 79.026868 56.380078 47.799656 0 86.599334-42.671868 86.599334-95.238085 0-52.567239-38.799678-95.239108-86.599334-95.239108L49.808918 660.761092c-14.364149 0-26.044166-12.874215-26.044166-28.726252S35.444768 603.305519 49.808918 603.305519z" fill="#4687FF" /></svg>