<?xml version="1.0" standalone="no"?><!DOCTYPE svg PUBLIC "-//W3C//DTD SVG 1.1//EN" "http://www.w3.org/Graphics/SVG/1.1/DTD/svg11.dtd"><svg class="icon" width="200px" height="200.00px" viewBox="0 0 1024 1024" version="1.1" xmlns="http://www.w3.org/2000/svg"><path d="M332.8 896m-102.4 0a102.4 102.4 0 1 0 204.8 0 102.4 102.4 0 1 0-204.8 0Z" fill="#FFFFFF" /><path d="M742.4 896m-102.4 0a102.4 102.4 0 1 0 204.8 0 102.4 102.4 0 1 0-204.8 0Z" fill="#FFFFFF" /><path d="M87.04 87.04m-40.96 0a40.96 40.96 0 1 0 81.92 0 40.96 40.96 0 1 0-81.92 0Z" fill="#1BBF7C" /><path d="M76.8 51.2c15.36 0 25.6 10.24 25.6 25.6s-10.24 25.6-25.6 25.6-25.6-10.24-25.6-25.6 10.24-25.6 25.6-25.6m0-51.2C35.84 0 0 35.84 0 76.8S35.84 153.6 76.8 153.6 153.6 117.76 153.6 76.8 117.76 0 76.8 0z" fill="#404040" /><path d="M138.24 686.08h655.36l92.16-450.56H107.52z" fill="#FFFFFF" /><path d="M240.64 686.08h655.36l92.16-450.56H209.92z" fill="#46B846" /><path d="M962.56 256L870.4 665.6H138.24l-25.6-409.6h849.92M1024 204.8H56.32l35.84 512h819.2L1024 204.8z" fill="#404040" /><path d="M773.12 931.84m-76.8 0a76.8 76.8 0 1 0 153.6 0 76.8 76.8 0 1 0-153.6 0Z" fill="#46B846" /><path d="M742.4 819.2c40.96 0 76.8 35.84 76.8 76.8s-35.84 76.8-76.8 76.8-76.8-35.84-76.8-76.8 35.84-76.8 76.8-76.8m0-51.2c-71.68 0-128 56.32-128 128s56.32 128 128 128 128-56.32 128-128-56.32-128-128-128z" fill="#404040" /><path d="M947.2 870.4h-107.52c0 10.24 5.12 15.36 5.12 25.6s0 15.36-5.12 25.6h107.52c15.36 0 25.6-10.24 25.6-25.6s-10.24-25.6-25.6-25.6zM430.08 921.6h209.92c0-10.24-5.12-15.36-5.12-25.6s0-15.36 5.12-25.6H430.08c0 10.24 5.12 15.36 5.12 25.6s0 15.36-5.12 25.6zM230.4 896c0-10.24 0-15.36 5.12-25.6H153.6L102.4 128c0-15.36-15.36-25.6-25.6-25.6-15.36 0-25.6 15.36-25.6 25.6L102.4 921.6h128v-25.6z" fill="#404040" /><path d="M358.4 931.84m-76.8 0a76.8 76.8 0 1 0 153.6 0 76.8 76.8 0 1 0-153.6 0Z" fill="#46B846" /><path d="M332.8 819.2c40.96 0 76.8 35.84 76.8 76.8S373.76 972.8 332.8 972.8 256 936.96 256 896 291.84 819.2 332.8 819.2m0-51.2C261.12 768 204.8 824.32 204.8 896S261.12 1024 332.8 1024 460.8 967.68 460.8 896 404.48 768 332.8 768z" fill="#404040" /><path d="M947.2 409.6h-460.8c-15.36 0-25.6-10.24-25.6-25.6s10.24-25.6 25.6-25.6h460.8c15.36 0 25.6 10.24 25.6 25.6s-10.24 25.6-25.6 25.6zM896 563.2h-256c-15.36 0-25.6-10.24-25.6-25.6s10.24-25.6 25.6-25.6h256c15.36 0 25.6 10.24 25.6 25.6s-10.24 25.6-25.6 25.6z" fill="#404040" /><path d="M384 384m-25.6 0a25.6 25.6 0 1 0 51.2 0 25.6 25.6 0 1 0-51.2 0Z" fill="#404040" /></svg>