<?xml version="1.0" standalone="no"?><!DOCTYPE svg PUBLIC "-//W3C//DTD SVG 1.1//EN" "http://www.w3.org/Graphics/SVG/1.1/DTD/svg11.dtd"><svg class="icon" width="200px" height="200.00px" viewBox="0 0 1024 1024" version="1.1" xmlns="http://www.w3.org/2000/svg"><path d="M498.958865 1000.518733a214.293657 214.293657 0 0 1-25.287518-1.517251 109.16983 109.16983 0 0 1-14.450011-1.734002c-92.769068-17.629013-160.756368-66.470049-196.520144-141.248853-43.350032-91.107317-35.474776-218.33966 20.808016-324.258238 76.946306-144.500106 188.789388-389.427785 189.945389-391.884287A27.74402 27.74402 0 0 1 498.525365 123.619841a27.74402 27.74402 0 0 1 25.215269 16.184011c1.156001 2.456502 112.999083 247.311931 189.945389 391.884287 56.355041 105.846328 64.519297 233.150921 20.808015 324.258238-36.125026 74.778805-103.823326 123.54759-196.592394 141.248853a109.89233 109.89233 0 0 1-14.450011 1.734002 214.149157 214.149157 0 0 1-24.492768 1.589501z" fill="#FFFFFF" /><path d="M499.103366 151.363861v0.578-0.578S386.393283 397.375291 308.146476 544.765399s-73.333804 381.480279 156.493614 425.191561a85.833063 85.833063 0 0 0 11.487759 1.300501 180.191632 180.191632 0 0 0 45.734283 0 85.833063 85.833063 0 0 0 11.487759-1.300501c229.755168-43.711282 234.668172-278.162704 156.421364-425.191561S499.103366 151.363861 499.103366 151.363861zM252.875185 399.687293a151.219361 151.219361 0 0 1-20.013264-1.372751 61.412545 61.412545 0 0 1-7.225006-1.372751 97.248571 97.248571 0 0 1-10.837508-2.962252 98.187822 98.187822 0 0 1-9.970507-3.829253 60.184294 60.184294 0 0 1-6.430255-3.106753c-46.167784-25.793269-59.750794-61.990545-63.074296-87.928314-5.491004-43.350032 14.883511-94.575319 51.947788-130.050095 45.084033-42.916531 114.949834-117.984336 115.600085-118.779087a27.74402 27.74402 0 0 1 41.18253 0.65025 27.38277 27.38277 0 0 1 6.791505 15.244761c0 1.011501 11.126508 103.028575 21.675016 164.368871 8.092006 47.612785-3.829253 97.176321-30.995273 129.327595A111.843082 111.843082 0 0 1 252.875185 399.687293z" fill="#FFFFFF" /><path d="M345.138503 235.173922c-10.693008-62.929796-21.675016-166.175122-21.675016-166.175121S252.875185 145.078106 206.418401 189.078388s-72.755803 130.050095 5.491004 173.400127a32.873774 32.873774 0 0 0 4.046003 1.878502 69.071051 69.071051 0 0 0 16.617512 5.491004 32.729274 32.729274 0 0 0 4.335004 0.939251C325.630988 382.92528 355.759261 298.031468 345.138503 235.173922zM848.865872 807.105341a74.923305 74.923305 0 0 1-57.800043-25.793269 105.485077 105.485077 0 0 1-22.469766-81.281309c4.479503-34.752275 8.453256-92.696818 8.453256-93.274819a27.74402 27.74402 0 0 1 47.251535-17.773513c0.4335 0.4335 41.61603 41.32703 67.915049 64.447048 19.579764 17.267763 39.448529 48.046285 36.125027 82.72631a78.535808 78.535808 0 0 1-39.520779 60.545545 46.456784 46.456784 0 0 1-4.624003 2.456501 66.108798 66.108798 0 0 1-14.016511 5.274254 46.095534 46.095534 0 0 1-5.057503 1.228251 96.742821 96.742821 0 0 1-16.473012 1.445001z" fill="#FFFFFF" /><path d="M873.79214 674.237494c-27.31052-23.987018-69.215551-65.603048-69.215551-65.603048s-3.973753 58.956043-8.670006 94.936569 14.450011 83.521061 64.663797 74.778805l2.456502-0.578a39.304029 39.304029 0 0 0 9.320257-3.540253l2.239752-1.156001c43.566782-26.588019 26.515769-74.851055-0.794751-98.838072z" fill="#FFFFFF" /><path d="M689.771255 544.765399C611.596698 397.375291 499.103366 151.363861 499.103366 151.363861v0.578-0.578S386.393283 397.375291 308.146476 544.765399s-73.333804 381.480279 156.493614 425.191561a85.905313 85.905313 0 0 0 11.487759 1.300501 180.191632 180.191632 0 0 0 45.734283 0 85.905313 85.905313 0 0 0 11.487759-1.300501c229.755168-43.711282 234.668172-278.162704 156.421364-425.191561z" fill="#54C3F1" /><path d="M643.025471 524.752134s86.700064 178.963381 40.315529 283.436958c-56.066041 126.148592-158.227616 126.654343-171.088125 108.95308-40.31553-55.560291 105.123827-83.376561 136.91385-187.850138C671.130742 657.475482 643.025471 524.752134 643.025471 524.752134z" fill="#FFFFFF" /><path d="M345.138503 235.173922c-10.693008-62.929796-21.675016-166.175122-21.675016-166.175121S252.875185 145.078106 206.418401 189.078388s-72.755803 130.050095 5.491004 173.400127a32.873774 32.873774 0 0 0 4.046003 1.878502 68.998801 68.998801 0 0 0 16.617512 5.491004 32.873774 32.873774 0 0 0 4.335004 0.939251C325.630988 382.92528 355.759261 298.031468 345.138503 235.173922z" fill="#54C3F1" /><path d="M330.543992 222.241163S340.514499 297.814718 310.675228 330.182742c-35.330276 39.087279-72.250053 26.87702-75.067805 18.857264-7.947506-25.070768 48.263035-17.629013 72.250052-51.731038 16.834262-23.409017 22.686517-75.067805 22.686517-75.067805z" fill="#FFFFFF" /><path d="M873.79214 674.237494c-27.31052-23.987018-69.215551-65.603048-69.215551-65.603048s-3.973753 58.956043-8.670006 94.936569 14.450011 83.521061 64.663797 74.778805l2.456502-0.578a39.304029 39.304029 0 0 0 9.320257-3.540253l2.239752-1.156001c43.566782-26.588019 26.515769-74.851055-0.794751-98.838072z" fill="#54C3F1" /><path d="M862.737882 673.731743s31.501023 29.839272 30.056022 54.765541c-1.734001 30.056022-22.542017 38.003528-26.51577 35.402525-12.499259-8.236506 15.028011-25.070768 13.51076-48.841035-1.083751-16.400762-17.051012-41.32703-17.051012-41.327031z" fill="#FFFFFF" /></svg>